<?xml version="1.0" encoding="UTF-8" standalone="no"?>
<svg
   width="64"
   height="64"
   viewBox="0 0 64 64"
   fill="none"
   version="1.1"
   id="svg3"
   sodipodi:docname="toggle.svg"
   inkscape:version="1.4.2 (ebf0e940d0, 2025-05-08)"
   xmlns:inkscape="http://www.inkscape.org/namespaces/inkscape"
   xmlns:sodipodi="http://sodipodi.sourceforge.net/DTD/sodipodi-0.dtd"
   xmlns="http://www.w3.org/2000/svg"
   xmlns:svg="http://www.w3.org/2000/svg">
  <defs
     id="defs3" />
  <sodipodi:namedview
     id="namedview3"
     pagecolor="#ffffff"
     bordercolor="#000000"
     borderopacity="0.25"
     inkscape:showpageshadow="2"
     inkscape:pageopacity="0.0"
     inkscape:pagecheckerboard="0"
     inkscape:deskcolor="#d1d1d1"
     inkscape:zoom="9.15625"
     inkscape:cx="18.730375"
     inkscape:cy="37.133106"
     inkscape:window-width="2560"
     inkscape:window-height="1380"
     inkscape:window-x="0"
     inkscape:window-y="0"
     inkscape:window-maximized="1"
     inkscape:current-layer="svg3" />
  <path
     d="M0 25.6C0 16.7634 7.16344 9.60001 16 9.60001H32V54.4H16C7.16344 54.4 0 47.2366 0 38.4V25.6Z"
     fill="white"
     id="path1"
     style="fill:#ffffff;fill-opacity:1" />
  <mask
     id="path-2-inside-1_2_14"
     fill="white">
    <path
       d="M32 9.60001H48C56.8366 9.60001 64 16.7635 64 25.6V38.4C64 47.2366 56.8366 54.4 48 54.4H32V9.60001Z"
       id="path2" />
  </mask>
  <path
     d="M32 5.60001H48C59.0457 5.60001 68 14.5543 68 25.6H60C60 18.9726 54.6274 13.6 48 13.6H32V5.60001ZM68 38.4C68 49.4457 59.0457 58.4 48 58.4H32V50.4H48C54.6274 50.4 60 45.0274 60 38.4H68ZM32 54.4V9.60001V54.4ZM48 5.60001C59.0457 5.60001 68 14.5543 68 25.6V38.4C68 49.4457 59.0457 58.4 48 58.4V50.4C54.6274 50.4 60 45.0274 60 38.4V25.6C60 18.9726 54.6274 13.6 48 13.6V5.60001Z"
     fill="white"
     mask="url(#path-2-inside-1_2_14)"
     id="path3"
     style="fill:#ffffff;fill-opacity:1" />
</svg>
